<svg width="450" height="326" viewBox="0 0 450 326" fill="none" xmlns="http://www.w3.org/2000/svg">
<mask id="path-1-inside-1_390_4366" fill="white">
<path d="M224.926 0C221.651 0 216.802 0.433112 212.946 1.77418C211.025 2.44226 209.237 3.37391 208.038 4.69043C206.852 5.99292 206.278 7.64148 206.668 9.58897L205.913 11.8546C185.502 13.6722 154.289 17.6215 126.053 23.6544C111.775 26.7051 98.2274 30.2949 87.213 34.4225C76.2554 38.5288 67.6032 43.2379 63.3324 48.6325C61.4831 50.9685 59.6105 53.2752 57.7355 55.5849C49.342 65.9242 40.9 76.3233 34.277 89.6797C26.1522 106.065 20.7669 126.869 21.3053 157.557C21.7331 181.944 22.8442 197.473 23.6155 208.253C23.8112 210.989 23.9851 213.418 24.1203 215.609C24.7864 226.4 24.5088 231.291 21.3918 238.564C20.5546 240.518 19.2275 243.207 17.6343 246.436C13.2584 255.303 6.87581 268.237 3.1289 281.154C0.565339 289.991 -0.823026 298.982 0.523131 306.835C1.87995 314.75 6.01803 321.491 14.3958 325.68L14.4239 325.694L14.4529 325.707C14.9796 325.932 15.7066 326.004 16.5311 326C17.3943 325.995 18.503 325.902 19.8794 325.706C22.6345 325.312 26.5409 324.49 31.8473 323.05C42.4636 320.169 58.7571 314.796 82.7834 305.357C130.609 286.569 197.466 281.854 224.926 281.854V279.711C197.373 279.711 130.198 284.427 81.9997 303.362C58.0143 312.785 41.7998 318.129 31.286 320.981C26.0273 322.408 22.2131 323.207 19.5763 323.584C18.2567 323.772 17.2516 323.852 16.5187 323.856C15.7913 323.861 15.4373 323.788 15.3166 323.744C7.64444 319.894 3.88906 313.784 2.63569 306.473C1.3696 299.087 2.66046 290.462 5.18742 281.751C8.87543 269.037 15.0722 256.481 19.444 247.623C21.0822 244.304 22.4641 241.503 23.3619 239.409C26.6749 231.678 26.9332 226.389 26.2596 215.477C26.1235 213.271 25.9489 210.831 25.7526 208.087C24.9813 197.306 23.8751 181.842 23.4483 157.519C22.9151 127.122 28.2466 106.666 36.1972 90.6319C42.7046 77.5088 50.9682 67.3266 59.3506 56.9981C61.2382 54.6723 63.132 52.3389 65.0129 49.9629C68.8871 45.0693 77.0335 40.5261 87.9652 36.4295C98.84 32.3542 112.273 28.7905 126.501 25.7505C154.954 19.6713 186.469 15.7113 206.801 13.9279L207.502 13.8664L208.894 9.68804L208.819 9.38528C208.483 8.04156 208.823 7.01177 209.623 6.13363C210.474 5.1996 211.874 4.41655 213.65 3.7986C217.189 2.56762 221.771 2.14338 224.926 2.14338V0Z"/>
<path d="M224.926 0C228.202 0 233.051 0.433112 236.906 1.77418C238.827 2.44226 240.615 3.37391 241.814 4.69043C243 5.99292 243.574 7.64148 243.184 9.58897L243.939 11.8546C264.35 13.6722 295.563 17.6215 323.799 23.6544C338.078 26.7051 351.625 30.2949 362.639 34.4225C373.597 38.5288 382.249 43.2379 386.52 48.6325C388.368 50.9675 390.24 53.2732 392.114 55.5819L392.117 55.5851C400.51 65.9244 408.952 76.3233 415.575 89.6797C423.7 106.065 429.085 126.869 428.547 157.557C428.119 181.944 427.008 197.473 426.237 208.253L426.236 208.263C426.041 210.995 425.867 213.421 425.732 215.609C425.066 226.4 425.343 231.291 428.46 238.564C429.297 240.517 430.624 243.206 432.217 246.433L432.218 246.436C436.594 255.303 442.976 268.237 446.723 281.154C449.287 289.991 450.675 298.982 449.329 306.835C447.972 314.75 443.834 321.491 435.456 325.68L435.428 325.694L435.399 325.707C434.873 325.932 434.146 326.004 433.321 326C432.458 325.995 431.349 325.902 429.973 325.706C427.218 325.312 423.311 324.49 418.005 323.05C407.389 320.169 391.095 314.796 367.069 305.357C319.244 286.569 252.386 281.854 224.926 281.854V279.711C252.479 279.711 319.654 284.427 367.853 303.362C391.838 312.785 408.052 318.129 418.566 320.981C423.825 322.408 427.639 323.207 430.276 323.584C431.596 323.772 432.601 323.852 433.334 323.856C434.061 323.861 434.415 323.788 434.536 323.744C442.208 319.894 445.963 313.784 447.217 306.473C448.483 299.087 447.192 290.462 444.665 281.751C440.977 269.037 434.78 256.481 430.408 247.623C428.77 244.304 427.388 241.503 426.49 239.409C423.177 231.678 422.919 226.389 423.593 215.477C423.729 213.271 423.903 210.831 424.1 208.087C424.871 197.305 425.977 181.842 426.404 157.519C426.937 127.122 421.606 106.666 413.655 90.6319C407.148 77.5088 398.884 67.3266 390.502 56.9981L390.499 56.9944L390.497 56.9922C388.611 54.6682 386.719 52.3369 384.839 49.9629C380.965 45.0693 372.819 40.5261 361.887 36.4295C351.012 32.3542 337.58 28.7905 323.351 25.7505C294.899 19.6713 263.383 15.7113 243.051 13.9279L242.351 13.8664L240.958 9.68804L241.034 9.38528C241.369 8.04156 241.029 7.01177 240.229 6.13363C239.379 5.1996 237.979 4.41655 236.202 3.7986C232.663 2.56762 228.081 2.14338 224.926 2.14338V0Z"/>
<path d="M81.9997 303.362C130.198 284.427 197.373 279.711 224.926 279.711C252.479 279.711 319.654 284.427 367.853 303.362C391.838 312.785 408.052 318.129 418.566 320.981C423.825 322.408 427.639 323.207 430.276 323.584C431.596 323.772 432.601 323.852 433.334 323.856C434.061 323.861 434.415 323.788 434.536 323.744C442.208 319.894 445.963 313.784 447.217 306.473C448.483 299.087 447.192 290.462 444.665 281.751C440.977 269.037 434.78 256.481 430.408 247.623C428.77 244.304 427.388 241.503 426.49 239.409C423.177 231.678 422.919 226.389 423.593 215.477C423.729 213.271 423.903 210.831 424.1 208.087C424.871 197.305 425.977 181.842 426.404 157.519C426.937 127.122 421.606 106.666 413.655 90.6319C407.148 77.5088 398.884 67.3266 390.502 56.9981L390.499 56.9944L390.497 56.9922C388.611 54.6682 386.719 52.3369 384.839 49.9629C380.965 45.0693 372.819 40.5261 361.887 36.4295C351.012 32.3542 337.58 28.7905 323.351 25.7505C294.899 19.6713 263.383 15.7113 243.051 13.9279L242.351 13.8664L240.958 9.68804L241.034 9.38528C241.369 8.04156 241.029 7.01177 240.229 6.13363C239.379 5.1996 237.979 4.41655 236.202 3.7986C232.663 2.56762 228.081 2.14338 224.926 2.14338C221.771 2.14338 217.189 2.56762 213.65 3.7986C211.874 4.41655 210.474 5.1996 209.623 6.13363C208.823 7.01177 208.483 8.04156 208.819 9.38528L208.894 9.68804L207.502 13.8664L206.801 13.9279C186.469 15.7113 154.954 19.6713 126.501 25.7505C112.273 28.7905 98.84 32.3542 87.9652 36.4295C77.0335 40.5261 68.8871 45.0693 65.0129 49.9629C63.132 52.3389 61.2382 54.6723 59.3506 56.9981C50.9682 67.3266 42.7046 77.5088 36.1972 90.6319C28.2466 106.666 22.9151 127.122 23.4483 157.519C23.8751 181.842 24.9813 197.306 25.7526 208.087C25.9489 210.831 26.1235 213.271 26.2596 215.477C26.9332 226.389 26.6749 231.678 23.3619 239.409C22.4641 241.503 21.0822 244.304 19.444 247.623C15.0722 256.481 8.87543 269.037 5.18742 281.751C2.66046 290.462 1.3696 299.087 2.63569 306.473C3.88906 313.784 7.64444 319.894 15.3166 323.744C15.4373 323.788 15.7913 323.861 16.5187 323.856C17.2516 323.852 18.2567 323.772 19.5763 323.584C22.2131 323.207 26.0273 322.408 31.286 320.981C41.7998 318.129 58.0143 312.785 81.9997 303.362Z"/>
</mask>
<path d="M224.926 0C221.651 0 216.802 0.433112 212.946 1.77418C211.025 2.44226 209.237 3.37391 208.038 4.69043C206.852 5.99292 206.278 7.64148 206.668 9.58897L205.913 11.8546C185.502 13.6722 154.289 17.6215 126.053 23.6544C111.775 26.7051 98.2274 30.2949 87.213 34.4225C76.2554 38.5288 67.6032 43.2379 63.3324 48.6325C61.4831 50.9685 59.6105 53.2752 57.7355 55.5849C49.342 65.9242 40.9 76.3233 34.277 89.6797C26.1522 106.065 20.7669 126.869 21.3053 157.557C21.7331 181.944 22.8442 197.473 23.6155 208.253C23.8112 210.989 23.9851 213.418 24.1203 215.609C24.7864 226.4 24.5088 231.291 21.3918 238.564C20.5546 240.518 19.2275 243.207 17.6343 246.436C13.2584 255.303 6.87581 268.237 3.1289 281.154C0.565339 289.991 -0.823026 298.982 0.523131 306.835C1.87995 314.75 6.01803 321.491 14.3958 325.68L14.4239 325.694L14.4529 325.707C14.9796 325.932 15.7066 326.004 16.5311 326C17.3943 325.995 18.503 325.902 19.8794 325.706C22.6345 325.312 26.5409 324.49 31.8473 323.05C42.4636 320.169 58.7571 314.796 82.7834 305.357C130.609 286.569 197.466 281.854 224.926 281.854V279.711C197.373 279.711 130.198 284.427 81.9997 303.362C58.0143 312.785 41.7998 318.129 31.286 320.981C26.0273 322.408 22.2131 323.207 19.5763 323.584C18.2567 323.772 17.2516 323.852 16.5187 323.856C15.7913 323.861 15.4373 323.788 15.3166 323.744C7.64444 319.894 3.88906 313.784 2.63569 306.473C1.3696 299.087 2.66046 290.462 5.18742 281.751C8.87543 269.037 15.0722 256.481 19.444 247.623C21.0822 244.304 22.4641 241.503 23.3619 239.409C26.6749 231.678 26.9332 226.389 26.2596 215.477C26.1235 213.271 25.9489 210.831 25.7526 208.087C24.9813 197.306 23.8751 181.842 23.4483 157.519C22.9151 127.122 28.2466 106.666 36.1972 90.6319C42.7046 77.5088 50.9682 67.3266 59.3506 56.9981C61.2382 54.6723 63.132 52.3389 65.0129 49.9629C68.8871 45.0693 77.0335 40.5261 87.9652 36.4295C98.84 32.3542 112.273 28.7905 126.501 25.7505C154.954 19.6713 186.469 15.7113 206.801 13.9279L207.502 13.8664L208.894 9.68804L208.819 9.38528C208.483 8.04156 208.823 7.01177 209.623 6.13363C210.474 5.1996 211.874 4.41655 213.65 3.7986C217.189 2.56762 221.771 2.14338 224.926 2.14338V0Z" fill="#2ECC40"/>
<path d="M224.926 0C228.202 0 233.051 0.433112 236.906 1.77418C238.827 2.44226 240.615 3.37391 241.814 4.69043C243 5.99292 243.574 7.64148 243.184 9.58897L243.939 11.8546C264.35 13.6722 295.563 17.6215 323.799 23.6544C338.078 26.7051 351.625 30.2949 362.639 34.4225C373.597 38.5288 382.249 43.2379 386.52 48.6325C388.368 50.9675 390.24 53.2732 392.114 55.5819L392.117 55.5851C400.51 65.9244 408.952 76.3233 415.575 89.6797C423.7 106.065 429.085 126.869 428.547 157.557C428.119 181.944 427.008 197.473 426.237 208.253L426.236 208.263C426.041 210.995 425.867 213.421 425.732 215.609C425.066 226.4 425.343 231.291 428.46 238.564C429.297 240.517 430.624 243.206 432.217 246.433L432.218 246.436C436.594 255.303 442.976 268.237 446.723 281.154C449.287 289.991 450.675 298.982 449.329 306.835C447.972 314.75 443.834 321.491 435.456 325.68L435.428 325.694L435.399 325.707C434.873 325.932 434.146 326.004 433.321 326C432.458 325.995 431.349 325.902 429.973 325.706C427.218 325.312 423.311 324.49 418.005 323.05C407.389 320.169 391.095 314.796 367.069 305.357C319.244 286.569 252.386 281.854 224.926 281.854V279.711C252.479 279.711 319.654 284.427 367.853 303.362C391.838 312.785 408.052 318.129 418.566 320.981C423.825 322.408 427.639 323.207 430.276 323.584C431.596 323.772 432.601 323.852 433.334 323.856C434.061 323.861 434.415 323.788 434.536 323.744C442.208 319.894 445.963 313.784 447.217 306.473C448.483 299.087 447.192 290.462 444.665 281.751C440.977 269.037 434.78 256.481 430.408 247.623C428.77 244.304 427.388 241.503 426.49 239.409C423.177 231.678 422.919 226.389 423.593 215.477C423.729 213.271 423.903 210.831 424.1 208.087C424.871 197.305 425.977 181.842 426.404 157.519C426.937 127.122 421.606 106.666 413.655 90.6319C407.148 77.5088 398.884 67.3266 390.502 56.9981L390.499 56.9944L390.497 56.9922C388.611 54.6682 386.719 52.3369 384.839 49.9629C380.965 45.0693 372.819 40.5261 361.887 36.4295C351.012 32.3542 337.58 28.7905 323.351 25.7505C294.899 19.6713 263.383 15.7113 243.051 13.9279L242.351 13.8664L240.958 9.68804L241.034 9.38528C241.369 8.04156 241.029 7.01177 240.229 6.13363C239.379 5.1996 237.979 4.41655 236.202 3.7986C232.663 2.56762 228.081 2.14338 224.926 2.14338V0Z" fill="#2ECC40"/>
<path d="M81.9997 303.362C130.198 284.427 197.373 279.711 224.926 279.711C252.479 279.711 319.654 284.427 367.853 303.362C391.838 312.785 408.052 318.129 418.566 320.981C423.825 322.408 427.639 323.207 430.276 323.584C431.596 323.772 432.601 323.852 433.334 323.856C434.061 323.861 434.415 323.788 434.536 323.744C442.208 319.894 445.963 313.784 447.217 306.473C448.483 299.087 447.192 290.462 444.665 281.751C440.977 269.037 434.78 256.481 430.408 247.623C428.77 244.304 427.388 241.503 426.49 239.409C423.177 231.678 422.919 226.389 423.593 215.477C423.729 213.271 423.903 210.831 424.1 208.087C424.871 197.305 425.977 181.842 426.404 157.519C426.937 127.122 421.606 106.666 413.655 90.6319C407.148 77.5088 398.884 67.3266 390.502 56.9981L390.499 56.9944L390.497 56.9922C388.611 54.6682 386.719 52.3369 384.839 49.9629C380.965 45.0693 372.819 40.5261 361.887 36.4295C351.012 32.3542 337.58 28.7905 323.351 25.7505C294.899 19.6713 263.383 15.7113 243.051 13.9279L242.351 13.8664L240.958 9.68804L241.034 9.38528C241.369 8.04156 241.029 7.01177 240.229 6.13363C239.379 5.1996 237.979 4.41655 236.202 3.7986C232.663 2.56762 228.081 2.14338 224.926 2.14338C221.771 2.14338 217.189 2.56762 213.65 3.7986C211.874 4.41655 210.474 5.1996 209.623 6.13363C208.823 7.01177 208.483 8.04156 208.819 9.38528L208.894 9.68804L207.502 13.8664L206.801 13.9279C186.469 15.7113 154.954 19.6713 126.501 25.7505C112.273 28.7905 98.84 32.3542 87.9652 36.4295C77.0335 40.5261 68.8871 45.0693 65.0129 49.9629C63.132 52.3389 61.2382 54.6723 59.3506 56.9981C50.9682 67.3266 42.7046 77.5088 36.1972 90.6319C28.2466 106.666 22.9151 127.122 23.4483 157.519C23.8751 181.842 24.9813 197.306 25.7526 208.087C25.9489 210.831 26.1235 213.271 26.2596 215.477C26.9332 226.389 26.6749 231.678 23.3619 239.409C22.4641 241.503 21.0822 244.304 19.444 247.623C15.0722 256.481 8.87543 269.037 5.18742 281.751C2.66046 290.462 1.3696 299.087 2.63569 306.473C3.88906 313.784 7.64444 319.894 15.3166 323.744C15.4373 323.788 15.7913 323.861 16.5187 323.856C17.2516 323.852 18.2567 323.772 19.5763 323.584C22.2131 323.207 26.0273 322.408 31.286 320.981C41.7998 318.129 58.0143 312.785 81.9997 303.362Z" fill="#2ECC40"/>
<path d="M81.9997 303.362L81.6078 302.365L81.6078 302.365L81.9997 303.362ZM31.286 320.981L31.0054 319.947L31.0053 319.947L31.286 320.981ZM19.5763 323.584L19.4247 322.523L19.4247 322.523L19.5763 323.584ZM16.5187 323.856L16.5249 324.928L16.5249 324.928L16.5187 323.856ZM15.3166 323.744L14.8359 324.702L14.8924 324.73L14.9518 324.752L15.3166 323.744ZM2.63569 306.473L3.69197 306.292L3.69197 306.292L2.63569 306.473ZM5.18742 281.751L6.21668 282.049L6.21668 282.049L5.18742 281.751ZM19.444 247.623L18.483 247.148L18.483 247.148L19.444 247.623ZM23.3619 239.409L24.3469 239.831L24.3469 239.831L23.3619 239.409ZM26.2596 215.477L25.19 215.543L25.19 215.543L26.2596 215.477ZM25.7526 208.087L26.8216 208.011L26.8216 208.011L25.7526 208.087ZM23.4483 157.519L22.3768 157.538L22.3768 157.538L23.4483 157.519ZM36.1972 90.6319L37.1574 91.108L37.1574 91.108L36.1972 90.6319ZM59.3506 56.9981L60.1827 57.6735L60.1827 57.6735L59.3506 56.9981ZM65.0129 49.9629L64.1727 49.2977L64.1727 49.2977L65.0129 49.9629ZM87.9652 36.4295L88.3412 37.4331L88.3412 37.4331L87.9652 36.4295ZM126.501 25.7505L126.277 24.7024L126.277 24.7024L126.501 25.7505ZM206.801 13.9279L206.707 12.8603L206.707 12.8603L206.801 13.9279ZM207.502 13.8664L207.595 14.934L208.296 14.8725L208.518 14.2053L207.502 13.8664ZM208.894 9.68804L209.911 10.0269L210.01 9.73087L209.934 9.4281L208.894 9.68804ZM208.819 9.38528L207.779 9.6452L207.779 9.64522L208.819 9.38528ZM209.623 6.13363L210.415 6.85523L210.415 6.85523L209.623 6.13363ZM213.65 3.7986L213.298 2.78639L213.298 2.78639L213.65 3.7986ZM367.853 303.362L368.244 302.365L368.244 302.365L367.853 303.362ZM418.566 320.981L418.847 319.947L418.847 319.947L418.566 320.981ZM430.276 323.584L430.428 322.523L430.428 322.523L430.276 323.584ZM433.334 323.856L433.327 324.928L433.327 324.928L433.334 323.856ZM434.536 323.744L434.901 324.752L434.96 324.73L435.016 324.702L434.536 323.744ZM447.217 306.473L446.16 306.292L446.16 306.292L447.217 306.473ZM444.665 281.751L443.636 282.049L443.636 282.049L444.665 281.751ZM430.408 247.623L431.369 247.148L431.369 247.148L430.408 247.623ZM426.49 239.409L427.475 238.987L427.475 238.987L426.49 239.409ZM423.593 215.477L422.523 215.411L422.523 215.411L423.593 215.477ZM424.1 208.087L425.169 208.163L425.169 208.163L424.1 208.087ZM426.404 157.519L427.475 157.538L427.475 157.538L426.404 157.519ZM413.655 90.6319L414.615 90.1558L414.615 90.1558L413.655 90.6319ZM390.502 56.9981L391.334 56.3228L391.331 56.3193L390.502 56.9981ZM390.499 56.9944L391.328 56.3156L391.325 56.3119L390.499 56.9944ZM384.839 49.9629L385.68 49.2977L385.68 49.2977L384.839 49.9629ZM361.887 36.4295L361.511 37.4331L361.511 37.4331L361.887 36.4295ZM323.351 25.7505L323.575 24.7024L323.575 24.7024L323.351 25.7505ZM243.051 13.9279L243.145 12.8603L243.145 12.8603L243.051 13.9279ZM242.351 13.8664L241.334 14.2053L241.556 14.8725L242.257 14.934L242.351 13.8664ZM240.958 9.68804L239.918 9.4281L239.842 9.73087L239.941 10.0269L240.958 9.68804ZM241.034 9.38528L242.073 9.64522L242.073 9.6452L241.034 9.38528ZM240.229 6.13363L239.437 6.85523L239.437 6.85523L240.229 6.13363ZM236.202 3.7986L236.554 2.78639L236.554 2.78639L236.202 3.7986ZM390.497 56.9922L389.665 57.6675L389.671 57.6747L390.497 56.9922ZM224.926 279.711H223.854V281.854H224.926H225.998V279.711H224.926ZM81.9997 303.362L82.3915 304.36C130.403 285.498 197.419 280.782 224.926 280.782V279.711V278.639C197.327 278.639 129.992 283.356 81.6078 302.365L81.9997 303.362ZM31.286 320.981L31.5666 322.016C42.1317 319.149 58.3857 313.79 82.3915 304.36L81.9997 303.362L81.6078 302.365C57.6429 311.779 41.468 317.108 31.0054 319.947L31.286 320.981ZM19.5763 323.584L19.7278 324.645C22.4238 324.26 26.2841 323.449 31.5666 322.016L31.286 320.981L31.0053 319.947C25.7705 321.368 22.0023 322.155 19.4247 322.523L19.5763 323.584ZM16.5187 323.856L16.5249 324.928C17.3229 324.923 18.3799 324.837 19.7278 324.645L19.5763 323.584L19.4247 322.523C18.1335 322.707 17.1802 322.781 16.5125 322.785L16.5187 323.856ZM15.3166 323.744L14.9518 324.752C15.2525 324.861 15.7585 324.932 16.5249 324.928L16.5187 323.856L16.5125 322.785C16.1841 322.787 15.9589 322.771 15.8165 322.754C15.6616 322.736 15.6333 322.719 15.6814 322.737L15.3166 323.744ZM2.63569 306.473L1.57941 306.654C2.88339 314.26 6.82443 320.682 14.8359 324.702L15.3166 323.744L15.7972 322.786C8.46444 319.107 4.89474 313.308 3.69197 306.292L2.63569 306.473ZM5.18742 281.751L4.15816 281.452C1.61291 290.227 0.273286 299.035 1.57941 306.654L2.63569 306.473L3.69197 306.292C2.46592 299.14 3.70801 290.698 6.21668 282.049L5.18742 281.751ZM19.444 247.623L18.483 247.148C14.1168 255.995 7.87661 268.633 4.15816 281.452L5.18742 281.751L6.21668 282.049C9.87425 269.44 16.0276 256.967 20.4051 248.097L19.444 247.623ZM23.3619 239.409L22.3768 238.987C21.4931 241.049 20.1267 243.818 18.483 247.148L19.444 247.623L20.4051 248.097C22.0377 244.789 23.4351 241.958 24.3469 239.831L23.3619 239.409ZM26.2596 215.477L25.19 215.543C25.8598 226.394 25.5919 231.485 22.3768 238.987L23.3619 239.409L24.3469 239.831C27.7579 231.872 28.0066 226.383 27.3293 215.411L26.2596 215.477ZM25.7526 208.087L24.6837 208.164C24.88 210.909 25.0542 213.344 25.19 215.543L26.2596 215.477L27.3293 215.411C27.1927 213.199 27.0177 210.753 26.8216 208.011L25.7526 208.087ZM23.4483 157.519L22.3768 157.538C22.804 181.889 23.9118 197.375 24.6837 208.164L25.7526 208.087L26.8216 208.011C26.0508 197.237 24.9461 181.795 24.5199 157.501L23.4483 157.519ZM36.1972 90.6319L35.2371 90.1558C27.1994 106.365 21.841 126.995 22.3768 157.538L23.4483 157.519L24.5199 157.501C23.9891 127.248 29.2939 106.966 37.1574 91.108L36.1972 90.6319ZM59.3506 56.9981L58.5185 56.3228C50.143 66.6428 41.8047 76.9111 35.2371 90.1558L36.1972 90.6319L37.1574 91.108C43.6044 78.1064 51.7934 68.0105 60.1827 57.6735L59.3506 56.9981ZM65.0129 49.9629L64.1727 49.2977C62.2964 51.6677 60.4068 53.9961 58.5185 56.3228L59.3506 56.9981L60.1827 57.6735C62.0697 55.3484 63.9675 53.01 65.8532 50.6281L65.0129 49.9629ZM87.9652 36.4295L87.5891 35.426C76.6447 39.5274 68.2452 44.1535 64.1727 49.2977L65.0129 49.9629L65.8532 50.6281C69.529 45.985 77.4223 41.5249 88.3412 37.4331L87.9652 36.4295ZM126.501 25.7505L126.277 24.7024C112.024 27.7478 98.5337 31.3246 87.5891 35.426L87.9652 36.4295L88.3412 37.4331C99.1463 33.3839 112.522 29.8331 126.725 26.7985L126.501 25.7505ZM206.801 13.9279L206.707 12.8603C186.345 14.6464 154.784 18.6117 126.277 24.7024L126.501 25.7505L126.725 26.7985C155.123 20.731 186.593 16.7763 206.895 14.9954L206.801 13.9279ZM207.502 13.8664L207.408 12.7988L206.707 12.8603L206.801 13.9279L206.895 14.9954L207.595 14.934L207.502 13.8664ZM208.819 9.38528L207.779 9.64522L207.855 9.94798L208.894 9.68804L209.934 9.4281L209.858 9.12534L208.819 9.38528ZM209.623 6.13363L208.831 5.41203C208.34 5.95097 207.956 6.57549 207.76 7.30805C207.563 8.0431 207.573 8.82299 207.779 9.6452L208.819 9.38528L209.858 9.12535C209.728 8.60384 209.741 8.19698 209.83 7.86167C209.921 7.52388 210.106 7.19443 210.415 6.85523L209.623 6.13363ZM213.65 3.7986L213.298 2.78639C211.45 3.42937 209.855 4.28671 208.831 5.41203L209.623 6.13363L210.415 6.85523C211.092 6.11248 212.298 5.40373 214.002 4.8108L213.65 3.7986ZM224.926 2.14338V1.07169C221.711 1.07169 216.996 1.50036 213.298 2.78639L213.65 3.7986L214.002 4.8108C217.383 3.63487 221.832 3.21507 224.926 3.21507V2.14338ZM224.926 0H223.854V2.14338H224.926H225.998V0H224.926ZM367.853 303.362L368.244 302.365C319.86 283.356 252.525 278.639 224.926 278.639V279.711V280.782C252.433 280.782 319.449 285.498 367.461 304.36L367.853 303.362ZM418.566 320.981L418.847 319.947C408.384 317.108 392.209 311.779 368.244 302.365L367.853 303.362L367.461 304.36C391.467 313.79 407.721 319.149 418.286 322.016L418.566 320.981ZM430.276 323.584L430.428 322.523C427.85 322.155 424.082 321.368 418.847 319.947L418.566 320.981L418.286 322.016C423.568 323.449 427.428 324.26 430.124 324.645L430.276 323.584ZM433.334 323.856L433.34 322.785C432.672 322.781 431.719 322.707 430.428 322.523L430.276 323.584L430.124 324.645C431.472 324.837 432.529 324.923 433.327 324.928L433.334 323.856ZM434.536 323.744L434.171 322.737C434.219 322.719 434.191 322.736 434.036 322.754C433.893 322.771 433.668 322.787 433.34 322.785L433.334 323.856L433.327 324.928C434.094 324.932 434.6 324.861 434.901 324.752L434.536 323.744ZM447.217 306.473L446.16 306.292C444.958 313.308 441.388 319.107 434.055 322.786L434.536 323.744L435.016 324.702C443.028 320.682 446.969 314.26 448.273 306.654L447.217 306.473ZM444.665 281.751L443.636 282.049C446.144 290.698 447.386 299.14 446.16 306.292L447.217 306.473L448.273 306.654C449.579 299.035 448.239 290.227 445.694 281.452L444.665 281.751ZM430.408 247.623L429.447 248.097C433.825 256.967 439.978 269.44 443.636 282.049L444.665 281.751L445.694 281.452C441.976 268.633 435.735 255.995 431.369 247.148L430.408 247.623ZM426.49 239.409L425.505 239.831C426.417 241.958 427.815 244.789 429.447 248.097L430.408 247.623L431.369 247.148C429.726 243.818 428.359 241.049 427.475 238.987L426.49 239.409ZM423.593 215.477L422.523 215.411C421.846 226.383 422.094 231.872 425.505 239.831L426.49 239.409L427.475 238.987C424.26 231.485 423.992 226.394 424.662 215.543L423.593 215.477ZM424.1 208.087L423.031 208.01C422.835 210.753 422.66 213.199 422.523 215.411L423.593 215.477L424.662 215.543C424.798 213.344 424.972 210.909 425.169 208.163L424.1 208.087ZM426.404 157.519L425.332 157.501C424.906 181.795 423.801 197.236 423.031 208.01L424.1 208.087L425.169 208.163C425.94 197.374 427.048 181.889 427.475 157.538L426.404 157.519ZM413.655 90.6319L412.695 91.108C420.558 106.966 425.863 127.248 425.332 157.501L426.404 157.519L427.475 157.538C428.011 126.995 422.653 106.365 414.615 90.1558L413.655 90.6319ZM390.502 56.9981L389.67 57.6735C398.059 68.0105 406.248 78.1064 412.695 91.108L413.655 90.6319L414.615 90.1558C408.048 76.9111 399.709 66.6428 391.334 56.3228L390.502 56.9981ZM390.499 56.9944L389.669 57.6732L389.672 57.6769L390.502 56.9981L391.331 56.3193L391.328 56.3156L390.499 56.9944ZM361.887 36.4295L361.511 37.4331C372.43 41.5249 380.323 45.985 383.999 50.6281L384.839 49.9629L385.68 49.2977C381.607 44.1535 373.208 39.5274 362.263 35.426L361.887 36.4295ZM323.351 25.7505L323.127 26.7985C337.331 29.8331 350.706 33.3839 361.511 37.4331L361.887 36.4295L362.263 35.426C351.319 31.3246 337.829 27.7478 323.575 24.7024L323.351 25.7505ZM243.051 13.9279L242.958 14.9954C263.259 16.7763 294.729 20.731 323.127 26.7985L323.351 25.7505L323.575 24.7024C295.068 18.6117 263.507 14.6464 243.145 12.8603L243.051 13.9279ZM242.351 13.8664L242.257 14.934L242.958 14.9954L243.051 13.9279L243.145 12.8603L242.444 12.7988L242.351 13.8664ZM241.034 9.38528L239.994 9.12534L239.918 9.4281L240.958 9.68804L241.998 9.94798L242.073 9.64522L241.034 9.38528ZM240.229 6.13363L239.437 6.85523C239.746 7.19443 239.932 7.52388 240.022 7.86167C240.112 8.19698 240.124 8.60384 239.994 9.12535L241.034 9.38528L242.073 9.6452C242.279 8.82299 242.289 8.0431 242.093 7.30805C241.897 6.57549 241.512 5.95097 241.022 5.41203L240.229 6.13363ZM236.202 3.7986L235.85 4.8108C237.555 5.40373 238.761 6.11248 239.437 6.85523L240.229 6.13363L241.022 5.41203C239.997 4.28671 238.403 3.42937 236.554 2.78639L236.202 3.7986ZM224.926 2.14338V3.21507C228.02 3.21507 232.469 3.63487 235.85 4.8108L236.202 3.7986L236.554 2.78639C232.857 1.50036 228.141 1.07169 224.926 1.07169V2.14338ZM208.894 9.68804L207.878 9.34913L206.485 13.5275L207.502 13.8664L208.518 14.2053L209.911 10.0269L208.894 9.68804ZM240.958 9.68804L239.941 10.0269L241.334 14.2053L242.351 13.8664L243.367 13.5275L241.975 9.34913L240.958 9.68804ZM390.499 56.9944L391.325 56.3119L391.323 56.3096L390.497 56.9922L389.671 57.6747L389.672 57.677L390.499 56.9944ZM390.497 56.9922L391.329 56.3168C389.442 53.9921 387.554 51.6657 385.68 49.2977L384.839 49.9629L383.999 50.6281C385.883 53.008 387.779 55.3444 389.665 57.6675L390.497 56.9922ZM212.946 1.77418L212.242 -0.25023L212.242 -0.250228L212.946 1.77418ZM208.038 4.69043L209.623 6.13363L209.623 6.13362L208.038 4.69043ZM206.668 9.58897L208.701 10.2668L208.882 9.72635L208.77 9.16778L206.668 9.58897ZM205.913 11.8546L206.103 13.9895L207.502 13.865L207.946 12.5324L205.913 11.8546ZM126.053 23.6544L125.605 21.5583L125.605 21.5583L126.053 23.6544ZM87.213 34.4225L87.9652 36.4296L87.9652 36.4295L87.213 34.4225ZM63.3324 48.6325L61.6519 47.3021L61.6519 47.3021L63.3324 48.6325ZM57.7355 55.5849L59.3996 56.9358L59.3996 56.9358L57.7355 55.5849ZM34.277 89.6797L32.3567 88.7275L32.3567 88.7275L34.277 89.6797ZM21.3053 157.557L23.4483 157.519L23.4483 157.519L21.3053 157.557ZM23.6155 208.253L25.7534 208.1L25.7534 208.1L23.6155 208.253ZM24.1203 215.609L26.2596 215.477L26.2596 215.477L24.1203 215.609ZM21.3918 238.564L23.3619 239.409L23.3619 239.409L21.3918 238.564ZM17.6343 246.436L15.7122 245.487L15.7122 245.487L17.6343 246.436ZM3.1289 281.154L1.07038 280.557L1.07038 280.557L3.1289 281.154ZM0.523131 306.835L-1.58943 307.197L-1.58943 307.197L0.523131 306.835ZM14.3958 325.68L13.4372 327.597L13.4384 327.598L14.3958 325.68ZM14.4239 325.694L13.4666 327.612L13.5217 327.64L13.5784 327.664L14.4239 325.694ZM14.4529 325.707L13.6073 327.676L13.6086 327.677L14.4529 325.707ZM16.5311 326L16.5434 328.143L16.5434 328.143L16.5311 326ZM19.8794 325.706L19.5763 323.584L19.5762 323.584L19.8794 325.706ZM31.8473 323.05L31.286 320.981L31.286 320.981L31.8473 323.05ZM82.7834 305.357L83.5671 307.352L83.5671 307.352L82.7834 305.357ZM236.906 1.77418L237.61 -0.250228L237.61 -0.25023L236.906 1.77418ZM241.814 4.69043L240.229 6.13362L240.229 6.13363L241.814 4.69043ZM243.184 9.58897L241.083 9.16778L240.971 9.72635L241.151 10.2668L243.184 9.58897ZM243.939 11.8546L241.906 12.5324L242.35 13.865L243.749 13.9895L243.939 11.8546ZM323.799 23.6544L324.247 21.5583L324.247 21.5583L323.799 23.6544ZM362.639 34.4225L361.887 36.4295L361.887 36.4296L362.639 34.4225ZM386.52 48.6325L384.839 49.9629L384.839 49.9629L386.52 48.6325ZM392.114 55.5819L390.45 56.9328L390.458 56.9422L392.114 55.5819ZM392.117 55.5851L393.781 54.2342L393.773 54.2247L392.117 55.5851ZM415.575 89.6797L413.655 90.6319L413.655 90.6319L415.575 89.6797ZM428.547 157.557L426.404 157.519L426.404 157.519L428.547 157.557ZM426.237 208.253L428.374 208.416L428.375 208.406L426.237 208.253ZM426.236 208.263L424.099 208.1L424.098 208.11L426.236 208.263ZM425.732 215.609L427.871 215.741L427.871 215.741L425.732 215.609ZM428.46 238.564L430.431 237.72L430.431 237.72L428.46 238.564ZM432.217 246.433L430.295 247.382L430.3 247.392L432.217 246.433ZM432.218 246.436L434.14 245.487L434.135 245.477L432.218 246.436ZM446.723 281.154L448.782 280.557L448.782 280.557L446.723 281.154ZM449.329 306.835L451.442 307.197L451.442 307.197L449.329 306.835ZM435.456 325.68L436.414 327.598L436.415 327.597L435.456 325.68ZM435.428 325.694L436.274 327.664L436.331 327.639L436.386 327.612L435.428 325.694ZM435.399 325.707L436.244 327.677L436.245 327.676L435.399 325.707ZM433.321 326L433.309 328.143L433.309 328.143L433.321 326ZM429.973 325.706L430.276 323.584L430.276 323.584L429.973 325.706ZM418.005 323.05L418.566 320.981L418.566 320.981L418.005 323.05ZM367.069 305.357L366.285 307.352L366.285 307.352L367.069 305.357ZM212.946 1.77418L213.65 3.7986C217.189 2.56761 221.771 2.14338 224.926 2.14338V0V-2.14338C221.53 -2.14338 216.414 -1.70138 212.242 -0.25023L212.946 1.77418ZM208.038 4.69043L209.623 6.13362C210.474 5.19952 211.874 4.41649 213.65 3.7986L212.946 1.77418L212.242 -0.250228C210.177 0.468029 208.001 1.54831 206.454 3.24723L208.038 4.69043ZM206.668 9.58897L208.77 9.16778C208.525 7.94483 208.856 6.97616 209.623 6.13363L208.038 4.69043L206.454 3.24722C204.848 5.00968 204.031 7.33812 204.567 10.0102L206.668 9.58897ZM205.913 11.8546L207.946 12.5324L208.701 10.2668L206.668 9.58897L204.635 8.91114L203.879 11.1768L205.913 11.8546ZM126.053 23.6544L126.501 25.7505C154.629 19.7406 185.752 15.8018 206.103 13.9895L205.913 11.8546L205.723 9.71969C185.252 11.5426 153.949 15.5024 125.605 21.5583L126.053 23.6544ZM87.213 34.4225L87.9652 36.4295C98.84 32.3542 112.273 28.7905 126.501 25.7505L126.053 23.6544L125.605 21.5583C111.276 24.6198 97.6148 28.2355 86.4609 32.4154L87.213 34.4225ZM63.3324 48.6325L65.0129 49.9629C68.8872 45.0691 77.0339 40.526 87.9652 36.4296L87.213 34.4225L86.4609 32.4154C75.477 36.5315 66.3191 41.4067 61.6519 47.3021L63.3324 48.6325ZM57.7355 55.5849L59.3996 56.9358C61.2732 54.6278 63.1541 52.3109 65.013 49.9629L63.3324 48.6325L61.6519 47.3021C59.8121 49.6261 57.9478 51.9226 56.0715 54.234L57.7355 55.5849ZM34.277 89.6797L36.1972 90.6319C42.6997 77.5185 50.9926 67.2917 59.3996 56.9358L57.7355 55.5849L56.0715 54.234C47.6914 64.5568 39.1003 75.128 32.3567 88.7275L34.277 89.6797ZM21.3053 157.557L23.4483 157.519C22.9151 127.122 28.2466 106.666 36.1972 90.6319L34.277 89.6797L32.3567 88.7275C24.0578 105.464 18.6188 126.616 19.1623 157.595L21.3053 157.557ZM23.6155 208.253L25.7534 208.1C24.9832 197.335 23.8752 181.85 23.4483 157.519L21.3053 157.557L19.1623 157.595C19.5911 182.037 20.7052 197.61 21.4776 208.406L23.6155 208.253ZM24.1203 215.609L26.2596 215.477C26.1236 213.274 25.9489 210.833 25.7534 208.1L23.6155 208.253L21.4776 208.406C21.6735 211.144 21.8465 213.563 21.981 215.741L24.1203 215.609ZM21.3918 238.564L23.3619 239.409C26.6749 231.678 26.9332 226.389 26.2596 215.477L24.1203 215.609L21.981 215.741C22.6396 226.411 22.3428 230.904 19.4217 237.72L21.3918 238.564ZM17.6343 246.436L19.5564 247.384C21.138 244.179 22.4966 241.428 23.3619 239.409L21.3918 238.564L19.4217 237.72C18.6127 239.608 17.3169 242.235 15.7122 245.487L17.6343 246.436ZM3.1289 281.154L5.18742 281.751C8.87338 269.044 15.1688 256.275 19.5564 247.384L17.6343 246.436L15.7122 245.487C11.348 254.331 4.87825 267.429 1.07038 280.557L3.1289 281.154ZM0.523131 306.835L2.63569 306.473C1.3696 299.087 2.66048 290.462 5.18742 281.751L3.1289 281.154L1.07038 280.557C-1.5298 289.52 -3.01565 298.877 -1.58943 307.197L0.523131 306.835ZM14.3958 325.68L15.3543 323.763C7.657 319.914 3.89117 313.796 2.63569 306.473L0.523131 306.835L-1.58943 307.197C-0.131274 315.703 4.37906 323.068 13.4372 327.597L14.3958 325.68ZM14.4239 325.694L15.3813 323.777L15.3532 323.763L14.3958 325.68L13.4384 327.598L13.4666 327.612L14.4239 325.694ZM14.4529 325.707L15.2985 323.737L15.2695 323.725L14.4239 325.694L13.5784 327.664L13.6073 327.676L14.4529 325.707ZM16.5311 326L16.5187 323.856C15.7496 323.861 15.3968 323.779 15.2972 323.737L14.4529 325.707L13.6086 327.677C14.5623 328.086 15.6636 328.148 16.5434 328.143L16.5311 326ZM19.8794 325.706L19.5762 323.584C18.2567 323.772 17.2516 323.852 16.5187 323.856L16.5311 326L16.5434 328.143C17.537 328.137 18.7492 328.032 20.1825 327.827L19.8794 325.706ZM31.8473 323.05L31.286 320.981C26.0273 322.408 22.2131 323.207 19.5763 323.584L19.8794 325.706L20.1825 327.827C23.056 327.417 27.0545 326.571 32.4086 325.119L31.8473 323.05ZM82.7834 305.357L81.9997 303.362C58.0143 312.785 41.7998 318.129 31.286 320.981L31.8473 323.05L32.4086 325.119C43.1274 322.21 59.4999 316.807 83.5671 307.352L82.7834 305.357ZM224.926 281.854V279.711C197.373 279.711 130.198 284.427 81.9997 303.362L82.7834 305.357L83.5671 307.352C131.019 288.71 197.558 283.998 224.926 283.998V281.854ZM236.906 1.77418L237.61 -0.25023C233.438 -1.70138 228.322 -2.14338 224.926 -2.14338V0V2.14338C228.081 2.14338 232.663 2.56761 236.202 3.7986L236.906 1.77418ZM241.814 4.69043L243.399 3.24723C241.851 1.54831 239.675 0.468029 237.61 -0.250228L236.906 1.77418L236.202 3.7986C237.978 4.41649 239.379 5.19952 240.229 6.13362L241.814 4.69043ZM243.184 9.58897L245.286 10.0102C245.821 7.33812 245.004 5.00968 243.399 3.24722L241.814 4.69043L240.229 6.13363C240.997 6.97616 241.328 7.94483 241.083 9.16778L243.184 9.58897ZM243.939 11.8546L245.973 11.1768L245.218 8.91114L243.184 9.58897L241.151 10.2668L241.906 12.5324L243.939 11.8546ZM323.799 23.6544L324.247 21.5583C295.903 15.5024 264.6 11.5426 244.13 9.71969L243.939 11.8546L243.749 13.9895C264.101 15.8018 295.223 19.7406 323.351 25.7505L323.799 23.6544ZM362.639 34.4225L363.391 32.4154C352.237 28.2355 338.576 24.6198 324.247 21.5583L323.799 23.6544L323.351 25.7505C337.58 28.7905 351.012 32.3542 361.887 36.4295L362.639 34.4225ZM386.52 48.6325L388.2 47.3021C383.533 41.4067 374.375 36.5315 363.391 32.4154L362.639 34.4225L361.887 36.4296C372.818 40.526 380.965 45.0691 384.839 49.9629L386.52 48.6325ZM392.114 55.5819L393.778 54.231C391.903 51.9206 390.039 49.6251 388.2 47.3021L386.52 48.6325L384.839 49.9629C386.697 52.3099 388.577 54.6258 390.45 56.9327L392.114 55.5819ZM392.117 55.5851L393.773 54.2247L393.771 54.2215L392.114 55.5819L390.458 56.9422L390.461 56.9454L392.117 55.5851ZM415.575 89.6797L417.496 88.7275C410.752 75.128 402.161 64.557 393.781 54.2342L392.117 55.5851L390.453 56.936C398.86 67.2919 407.153 77.5185 413.655 90.6319L415.575 89.6797ZM428.547 157.557L430.69 157.595C431.233 126.616 425.795 105.464 417.496 88.7275L415.575 89.6797L413.655 90.6319C421.606 106.666 426.937 127.122 426.404 157.519L428.547 157.557ZM426.237 208.253L428.375 208.406C429.147 197.61 430.261 182.037 430.69 157.595L428.547 157.557L426.404 157.519C425.977 181.85 424.869 197.335 424.099 208.1L426.237 208.253ZM426.236 208.263L428.373 208.426L428.374 208.416L426.237 208.253L424.1 208.09L424.099 208.1L426.236 208.263ZM425.732 215.609L427.871 215.741C428.006 213.566 428.178 211.15 428.374 208.416L426.236 208.263L424.098 208.11C423.903 210.839 423.728 213.276 423.593 215.477L425.732 215.609ZM428.46 238.564L430.431 237.72C427.51 230.904 427.213 226.411 427.871 215.741L425.732 215.609L423.593 215.477C422.919 226.389 423.177 231.678 426.49 239.409L428.46 238.564ZM432.217 246.433L434.139 245.485C432.535 242.234 431.239 239.607 430.431 237.72L428.46 238.564L426.49 239.409C427.355 241.427 428.714 244.178 430.295 247.382L432.217 246.433ZM432.218 246.436L434.135 245.477L434.134 245.475L432.217 246.433L430.3 247.392L430.301 247.394L432.218 246.436ZM446.723 281.154L448.782 280.557C444.974 267.429 438.504 254.331 434.14 245.487L432.218 246.436L430.296 247.384C434.684 256.275 440.979 269.044 444.665 281.751L446.723 281.154ZM449.329 306.835L451.442 307.197C452.868 298.877 451.382 289.52 448.782 280.557L446.723 281.154L444.665 281.751C447.192 290.462 448.483 299.087 447.217 306.473L449.329 306.835ZM435.456 325.68L436.415 327.597C445.473 323.068 449.984 315.703 451.442 307.197L449.329 306.835L447.217 306.473C445.961 313.796 442.195 319.914 434.498 323.763L435.456 325.68ZM435.428 325.694L436.386 327.612L436.414 327.598L435.456 325.68L434.499 323.763L434.471 323.777L435.428 325.694ZM435.399 325.707L436.245 327.676L436.274 327.664L435.428 325.694L434.583 323.725L434.554 323.737L435.399 325.707ZM433.321 326L433.309 328.143C434.189 328.148 435.29 328.086 436.244 327.677L435.399 325.707L434.555 323.737C434.455 323.779 434.103 323.861 433.334 323.856L433.321 326ZM429.973 325.706L429.67 327.827C431.103 328.032 432.315 328.137 433.309 328.143L433.321 326L433.334 323.856C432.601 323.852 431.596 323.772 430.276 323.584L429.973 325.706ZM418.005 323.05L417.444 325.119C422.798 326.571 426.796 327.417 429.67 327.827L429.973 325.706L430.276 323.584C427.639 323.207 423.825 322.408 418.566 320.981L418.005 323.05ZM367.069 305.357L366.285 307.352C390.352 316.807 406.725 322.21 417.444 325.119L418.005 323.05L418.566 320.981C408.052 318.129 391.838 312.785 367.853 303.362L367.069 305.357ZM224.926 281.854V283.998C252.294 283.998 318.833 288.71 366.285 307.352L367.069 305.357L367.853 303.362C319.654 284.427 252.479 279.711 224.926 279.711V281.854Z" fill="#453B3D" mask="url(#path-1-inside-1_390_4366)"/>
<path d="M225.055 2.14355V220.768" stroke="#453B3D" stroke-width="2.14338"/>
<path d="M231.485 2.14355V220.768" stroke="#453B3D" stroke-width="2.14338" stroke-dasharray="4.29 4.29"/>
<path d="M218.624 2.14355V220.768" stroke="#453B3D" stroke-width="2.14338" stroke-dasharray="4.29 4.29"/>
<path d="M22.5057 238.986C21.81 245.429 31.1297 255.556 69.5278 240.094C107.926 224.633 187.783 220.768 222.912 220.768" stroke="#453B3D" stroke-width="2.14338"/>
<path d="M425.461 235.771C426.156 242.213 414.693 255.556 376.295 240.094C337.897 224.633 258.04 220.768 222.911 220.768" stroke="#453B3D" stroke-width="2.14338"/>
<circle cx="133.961" cy="67.5174" r="5.35844" fill="#2ECC40" stroke="#453B3D" stroke-width="4.28675"/>
<circle cx="309.719" cy="67.5174" r="5.35844" fill="#2ECC40" stroke="#453B3D" stroke-width="4.28675"/>
<path d="M190.761 15.0029C157.234 19.9363 85.1506 37.6257 65.0343 68.9171C39.889 108.031 45.1276 120.717 46.1754 160.888C47.0135 193.025 46.5246 231.702 46.1754 247.559" stroke="#453B3D" stroke-width="2.14338"/>
<path d="M252.918 15.0029C286.445 19.9363 358.529 37.6257 378.645 68.9171C403.79 108.031 398.552 120.717 397.504 160.888C396.666 193.025 397.247 230.631 397.596 246.488" stroke="#453B3D" stroke-width="2.14338"/>
<path d="M71.5737 239.268C65.6061 250.485 56.3564 271.798 67.098 267.311C80.5251 261.702 166.682 232.538 229.342 233.659" stroke="#453B3D" stroke-width="2.14338"/>
<path d="M63.2296 242.201C56.956 256.223 47.4851 281.34 58.7776 275.731C72.8932 268.721 163.469 232.265 229.341 233.667" stroke="#453B3D" stroke-width="2.14338"/>
<path d="M52.5122 245.417C45.7796 262.943 36.3214 293.268 48.4402 286.257C63.5887 277.494 160.791 231.924 231.484 233.677" stroke="#453B3D" stroke-width="2.14338"/>
<path d="M41.7962 247.56C34.681 268.592 25.2334 305.196 38.0408 296.783C54.0499 286.267 156.776 231.584 231.485 233.687" stroke="#453B3D" stroke-width="2.14338"/>
<path d="M379.378 241.13C385.346 252.347 393.753 271.798 383.012 267.311C369.585 261.702 283.428 232.538 220.768 233.659" stroke="#453B3D" stroke-width="2.14338"/>
<path d="M387.951 244.345C394.225 258.366 402.624 281.34 391.332 275.731C377.216 268.721 286.641 232.265 220.768 233.667" stroke="#453B3D" stroke-width="2.14338"/>
<path d="M397.597 246.488C404.329 264.015 413.787 293.268 401.669 286.257C386.52 277.494 289.317 231.924 218.625 233.677" stroke="#453B3D" stroke-width="2.14338"/>
<path d="M406.169 247.56C413.285 268.592 424.876 305.196 412.068 296.783C396.059 286.267 293.333 231.584 218.624 233.687" stroke="#453B3D" stroke-width="2.14338"/>
</svg>
