<svg width="485" height="395" viewBox="0 0 485 395" fill="none" xmlns="http://www.w3.org/2000/svg">
<path fill-rule="evenodd" clip-rule="evenodd" d="M0.592773 360.272L35.3962 379.73C41.1968 371.562 54.353 353.57 60.5731 346.94C68.3484 338.653 119.073 259.382 129.439 231.997L128.329 363.875H129.069V394.503H239.774H244.957H355.662V363.875H356.402L355.292 231.997C365.658 259.382 416.383 338.653 424.158 346.94C430.378 353.57 443.534 371.562 449.335 379.73L484.138 360.272C480.065 345.979 471.476 317.394 469.698 317.394C459.924 288.28 390.589 150.324 357.143 84.9853V83.544L355.292 81.0218C351.145 73.5271 327.153 61.5643 315.675 56.5198C315.798 55.1986 315.971 52.1239 315.675 50.3943C315.495 49.3418 314.349 46.6665 313.221 44.0318C312.031 41.2547 310.862 38.5226 310.862 37.783C310.862 36.63 312.096 34.42 312.713 33.4591C311.972 31.8977 310.195 28.1263 309.01 25.532C307.826 22.9377 306.789 18.2054 306.419 16.1636C289.344 2.54343 258.14 0.0781522 242.366 0.557681C226.591 0.0781337 195.387 2.54338 178.312 16.1636C177.942 18.2054 176.905 22.9377 175.721 25.532C174.536 28.1263 172.759 31.8977 172.018 33.4591C172.635 34.42 173.869 36.63 173.869 37.783C173.869 38.5226 172.699 41.2547 171.51 44.0318C170.382 46.6665 169.236 49.3418 169.056 50.3943C168.76 52.1239 168.933 55.1986 169.056 56.5198C157.578 61.5643 133.586 73.5271 129.439 81.0218L127.588 83.544V84.9853C94.1424 150.324 24.8071 288.28 15.0325 317.394C13.2553 317.394 4.66551 345.979 0.592773 360.272Z" fill="white"/>
<path d="M35.3962 379.73L35.1508 380.169L35.5448 380.389L35.8061 380.021L35.3962 379.73ZM0.592773 360.272L0.109208 360.134L0.00019702 360.517L0.347408 360.711L0.592773 360.272ZM60.5731 346.94L60.9398 347.284L60.9398 347.284L60.5731 346.94ZM129.439 231.997L129.942 232.001L128.969 231.819L129.439 231.997ZM128.329 363.875L127.826 363.871L127.822 364.378H128.329V363.875ZM129.069 363.875H129.572V363.373H129.069V363.875ZM129.069 394.503H128.566V395.006H129.069V394.503ZM355.662 394.503V395.006H356.165V394.503H355.662ZM355.662 363.875V363.373H355.159V363.875H355.662ZM356.402 363.875V364.378H356.909L356.905 363.871L356.402 363.875ZM355.292 231.997L355.762 231.819L354.789 232.001L355.292 231.997ZM424.158 346.94L423.791 347.284L423.791 347.284L424.158 346.94ZM449.335 379.73L448.925 380.021L449.186 380.389L449.58 380.169L449.335 379.73ZM484.138 360.272L484.384 360.711L484.731 360.517L484.622 360.134L484.138 360.272ZM469.698 317.394L469.222 317.554L469.337 317.897H469.698V317.394ZM357.143 84.9853H356.64V85.1065L356.695 85.2144L357.143 84.9853ZM357.143 83.544H357.646V83.3793L357.548 83.2465L357.143 83.544ZM355.292 81.0218L354.852 81.2652L354.867 81.2934L354.886 81.3193L355.292 81.0218ZM315.675 56.5198L315.174 56.473L315.14 56.8342L315.472 56.9801L315.675 56.5198ZM315.675 50.3943L315.179 50.4792L315.179 50.4792L315.675 50.3943ZM313.221 44.0318L312.758 44.2297L312.758 44.2297L313.221 44.0318ZM312.713 33.4591L313.136 33.7308L313.287 33.4959L313.167 33.2437L312.713 33.4591ZM309.01 25.532L308.553 25.7409L308.553 25.7409L309.01 25.532ZM306.419 16.1636L306.913 16.0739L306.88 15.8882L306.732 15.7705L306.419 16.1636ZM242.366 0.557681L242.35 1.06026L242.366 1.06073L242.381 1.06026L242.366 0.557681ZM178.312 16.1636L177.999 15.7705L177.851 15.8882L177.818 16.0739L178.312 16.1636ZM175.721 25.532L176.178 25.7409L176.178 25.7409L175.721 25.532ZM172.018 33.4591L171.564 33.2437L171.444 33.4959L171.595 33.7308L172.018 33.4591ZM171.51 44.0318L171.048 43.8339L171.048 43.8339L171.51 44.0318ZM169.056 50.3943L169.552 50.4792L169.552 50.4792L169.056 50.3943ZM169.056 56.5198L169.258 56.9801L169.591 56.8342L169.557 56.473L169.056 56.5198ZM129.439 81.0218L129.845 81.3193L129.864 81.2934L129.879 81.2652L129.439 81.0218ZM127.588 83.544L127.183 83.2465L127.085 83.3793V83.544H127.588ZM127.588 84.9853L128.036 85.2144L128.091 85.1065V84.9853H127.588ZM15.0325 317.394V317.897H15.3941L15.5092 317.554L15.0325 317.394ZM35.3962 379.73L35.6416 379.291L0.838138 359.833L0.592773 360.272L0.347408 360.711L35.1508 380.169L35.3962 379.73ZM60.5731 346.94L60.2065 346.596C53.9579 353.256 40.7806 371.28 34.9863 379.439L35.3962 379.73L35.8061 380.021C41.613 371.845 54.748 353.884 60.9398 347.284L60.5731 346.94ZM129.439 231.997L128.969 231.819C123.806 245.458 108.561 272.081 93.6063 296.367C86.1346 308.5 78.7444 320.037 72.7373 329.056C66.7174 338.095 62.115 344.562 60.2065 346.596L60.5731 346.94L60.9398 347.284C62.9189 345.175 67.5728 338.625 73.5743 329.614C79.5888 320.583 86.9855 309.037 94.4626 296.894C109.406 272.626 124.706 245.92 129.91 232.175L129.439 231.997ZM128.329 363.875L128.832 363.88L129.942 232.001L129.439 231.997L128.937 231.993L127.826 363.871L128.329 363.875ZM129.069 363.875V363.373H128.329V363.875V364.378H129.069V363.875ZM129.069 394.503H129.572V363.875H129.069H128.566V394.503H129.069ZM239.774 394.503V394H129.069V394.503V395.006H239.774V394.503ZM239.774 394.503V395.006H244.957V394.503V394H239.774V394.503ZM244.957 394.503V395.006H355.662V394.503V394H244.957V394.503ZM355.662 394.503H356.165V363.875H355.662H355.159V394.503H355.662ZM355.662 363.875V364.378H356.402V363.875V363.373H355.662V363.875ZM356.402 363.875L356.905 363.871L355.794 231.993L355.292 231.997L354.789 232.001L355.899 363.88L356.402 363.875ZM355.292 231.997L354.821 232.175C360.025 245.92 375.325 272.626 390.268 296.894C397.746 309.037 405.142 320.583 411.157 329.614C417.158 338.625 421.812 345.175 423.791 347.284L424.158 346.94L424.525 346.596C422.616 344.562 418.014 338.095 411.994 329.056C405.987 320.037 398.596 308.5 391.125 296.367C376.17 272.081 360.925 245.458 355.762 231.819L355.292 231.997ZM424.158 346.94L423.791 347.284C429.983 353.884 443.118 371.845 448.925 380.021L449.335 379.73L449.745 379.439C443.95 371.28 430.773 353.256 424.525 346.596L424.158 346.94ZM449.335 379.73L449.58 380.169L484.384 360.711L484.138 360.272L483.893 359.833L449.089 379.291L449.335 379.73ZM484.138 360.272L484.622 360.134C482.585 352.985 479.417 342.259 476.536 333.319C475.096 328.85 473.725 324.819 472.601 321.903C472.04 320.447 471.535 319.255 471.11 318.422C470.899 318.007 470.698 317.662 470.509 317.414C470.416 317.291 470.312 317.174 470.198 317.083C470.091 316.998 469.919 316.891 469.698 316.891V317.394V317.897C469.589 317.897 469.541 317.846 469.572 317.87C469.594 317.888 469.64 317.933 469.708 318.022C469.843 318.2 470.013 318.483 470.214 318.878C470.615 319.664 471.105 320.817 471.663 322.264C472.776 325.154 474.14 329.163 475.579 333.627C478.455 342.553 481.619 353.267 483.655 360.41L484.138 360.272ZM469.698 317.394L470.175 317.234C465.274 302.637 445.477 260.831 422.749 214.552C400.011 168.253 374.314 117.427 357.59 84.7562L357.143 84.9853L356.695 85.2144C373.417 117.882 399.111 168.703 421.846 214.995C444.591 261.308 464.348 303.037 469.222 317.554L469.698 317.394ZM357.143 84.9853H357.646V83.544H357.143H356.64V84.9853H357.143ZM357.143 83.544L357.548 83.2465L355.697 80.7243L355.292 81.0218L354.886 81.3193L356.737 83.8416L357.143 83.544ZM355.292 81.0218L355.731 80.7784C354.639 78.804 352.285 76.5972 349.267 74.3384C346.233 72.067 342.467 69.7 338.482 67.4158C330.512 62.8466 321.628 58.5869 315.877 56.0595L315.675 56.5198L315.472 56.9801C321.2 59.4972 330.05 63.7411 337.982 68.2882C341.949 70.562 345.676 72.9062 348.665 75.1434C351.67 77.3932 353.871 79.4922 354.852 81.2652L355.292 81.0218ZM315.675 56.5198L316.175 56.5666C316.299 55.2481 316.479 52.1122 316.17 50.3094L315.675 50.3943L315.179 50.4792C315.463 52.1355 315.298 55.1491 315.174 56.473L315.675 56.5198ZM315.675 50.3943L316.17 50.3095C316.07 49.7216 315.716 48.7392 315.27 47.6203C314.818 46.4834 314.246 45.1495 313.683 43.8339L313.221 44.0318L312.758 44.2297C313.323 45.5488 313.889 46.8699 314.336 47.9924C314.79 49.133 315.1 50.0145 315.179 50.4792L315.675 50.3943ZM313.221 44.0318L313.683 43.8339C313.087 42.443 312.501 41.0735 312.063 39.9594C311.844 39.4022 311.665 38.9165 311.542 38.5286C311.412 38.1191 311.364 37.8796 311.364 37.783H310.862H310.359C310.359 38.0562 310.457 38.4355 310.584 38.8332C310.717 39.2523 310.905 39.7619 311.127 40.3272C311.572 41.4584 312.165 42.8435 312.758 44.2297L313.221 44.0318ZM310.862 37.783H311.364C311.364 37.5725 311.423 37.2768 311.542 36.912C311.659 36.5542 311.823 36.1604 312.01 35.7637C312.385 34.9701 312.837 34.1965 313.136 33.7308L312.713 33.4591L312.29 33.1874C311.972 33.6826 311.498 34.4945 311.101 35.3343C310.903 35.7544 310.72 36.1893 310.586 36.6002C310.454 37.0041 310.359 37.417 310.359 37.783H310.862ZM312.713 33.4591L313.167 33.2437C312.427 31.6827 310.651 27.914 309.468 25.3231L309.01 25.532L308.553 25.7409C309.739 28.3387 311.518 32.1127 312.259 33.6746L312.713 33.4591ZM309.01 25.532L309.468 25.3231C308.312 22.7921 307.284 18.1164 306.913 16.0739L306.419 16.1636L305.924 16.2533C306.294 18.2945 307.339 23.0832 308.553 25.7409L309.01 25.532ZM306.419 16.1636L306.732 15.7705C298.101 8.88545 285.937 4.84412 273.998 2.57925C262.05 0.312444 250.268 -0.185583 242.35 0.0550988L242.366 0.557681L242.381 1.06026C250.238 0.821416 261.946 1.31626 273.811 3.56726C285.687 5.82019 297.662 9.82159 306.105 16.5567L306.419 16.1636ZM178.312 16.1636L178.626 16.5567C187.069 9.82157 199.044 5.82017 210.92 3.56723C222.785 1.31624 234.493 0.821407 242.35 1.06026L242.366 0.557681L242.381 0.0550988C234.463 -0.185592 222.681 0.312424 210.733 2.57923C198.794 4.84409 186.63 8.88543 177.999 15.7705L178.312 16.1636ZM175.721 25.532L176.178 25.7409C177.392 23.0832 178.437 18.2945 178.807 16.2533L178.312 16.1636L177.818 16.0739C177.447 18.1164 176.419 22.7921 175.263 25.3231L175.721 25.532ZM172.018 33.4591L172.472 33.6746C173.213 32.1127 174.992 28.3387 176.178 25.7409L175.721 25.532L175.263 25.3231C174.08 27.914 172.304 31.6827 171.564 33.2437L172.018 33.4591ZM173.869 37.783H174.372C174.372 37.417 174.277 37.0041 174.145 36.6002C174.011 36.1893 173.828 35.7544 173.63 35.3343C173.233 34.4945 172.759 33.6826 172.441 33.1874L172.018 33.4591L171.595 33.7308C171.894 34.1965 172.346 34.9701 172.721 35.7637C172.908 36.1603 173.072 36.5542 173.189 36.912C173.308 37.2768 173.367 37.5725 173.367 37.783H173.869ZM171.51 44.0318L171.972 44.2297C172.566 42.8435 173.159 41.4584 173.604 40.3272C173.826 39.7619 174.014 39.2523 174.147 38.8332C174.274 38.4355 174.372 38.0562 174.372 37.783H173.869H173.367C173.367 37.8796 173.319 38.1191 173.189 38.5286C173.066 38.9165 172.887 39.4022 172.668 39.9594C172.23 41.0735 171.644 42.443 171.048 43.8339L171.51 44.0318ZM169.056 50.3943L169.552 50.4792C169.631 50.0145 169.941 49.133 170.395 47.9924C170.842 46.8699 171.408 45.5488 171.972 44.2297L171.51 44.0318L171.048 43.8339C170.485 45.1495 169.913 46.4834 169.461 47.6203C169.015 48.7392 168.661 49.7216 168.561 50.3094L169.056 50.3943ZM169.056 56.5198L169.557 56.473C169.433 55.1491 169.268 52.1355 169.552 50.4792L169.056 50.3943L168.561 50.3094C168.252 52.1122 168.432 55.2481 168.556 56.5666L169.056 56.5198ZM129.439 81.0218L129.879 81.2652C130.86 79.4922 133.061 77.3932 136.066 75.1434C139.055 72.9062 142.782 70.562 146.749 68.2882C154.681 63.7411 163.531 59.4972 169.258 56.9801L169.056 56.5198L168.854 56.0595C163.103 58.5869 154.219 62.8466 146.249 67.4157C142.264 69.7 138.498 72.067 135.464 74.3384C132.446 76.5971 130.092 78.804 129 80.7783L129.439 81.0218ZM127.588 83.544L127.994 83.8415L129.845 81.3193L129.439 81.0218L129.034 80.7243L127.183 83.2465L127.588 83.544ZM127.588 84.9853H128.091V83.544H127.588H127.085V84.9853H127.588ZM15.0325 317.394L15.5092 317.554C20.383 303.037 40.1404 261.308 62.885 214.995C85.6198 168.703 111.314 117.882 128.036 85.2144L127.588 84.9853L127.141 84.7562C110.417 117.427 84.7203 168.253 61.9823 214.552C39.2541 260.831 19.4566 302.637 14.5558 317.234L15.0325 317.394ZM0.592773 360.272L1.07634 360.41C3.11184 353.267 6.27575 342.553 9.15204 333.627C10.5906 329.163 11.9548 325.154 13.0684 322.264C13.6261 320.817 14.1159 319.664 14.5167 318.878C14.7185 318.483 14.888 318.2 15.0227 318.022C15.0907 317.933 15.1366 317.888 15.1594 317.87C15.1897 317.846 15.142 317.897 15.0325 317.897V317.394V316.891C14.8119 316.891 14.6398 316.998 14.5331 317.083C14.4189 317.174 14.3152 317.291 14.2217 317.414C14.0334 317.662 13.8321 318.007 13.6209 318.422C13.1959 319.255 12.6912 320.447 12.1301 321.903C11.006 324.819 9.63499 328.85 8.19488 333.319C5.3138 342.259 2.14645 352.985 0.109208 360.134L0.592773 360.272Z" fill="#453B3D"/>
<path d="M128.329 84.0986C131.414 95.3888 136.992 124.887 134.623 152.56C132.253 180.233 130.92 196.039 130.55 200.483V230.39" stroke="#453B3D" stroke-width="1.00563"/>
<path d="M169.426 55.9932C182.632 58.7556 209.635 64.5689 212.005 65.7219C214.375 66.8749 223.359 69.8056 227.555 71.1267" stroke="#453B3D" stroke-width="1.00563"/>
<path d="M174.239 35.8149C183.002 39.5383 202.156 48.0659 208.672 52.3898C215.189 56.7137 224.717 63.5598 228.666 66.4424" stroke="#453B3D" stroke-width="1.00563"/>
<path d="M176.091 25.3647C180.041 29.3283 190.309 38.4805 199.787 43.3809C211.635 49.5064 226.445 57.4335 228.667 60.6764" stroke="#453B3D" stroke-width="1.00563"/>
<path d="M228.666 119.41V64.2802V59.596C230.147 56.4252 231.998 58.2748 232.739 59.596V119.41H228.666Z" fill="white" stroke="#453B3D" stroke-width="1.00563"/>
<path d="M228.666 103.195H232.369" stroke="#453B3D" stroke-width="1.00563"/>
<path d="M232.739 66.082C234.097 68.1239 236.886 72.2796 237.182 72.5678" stroke="#453B3D" stroke-width="1.00563"/>
<path d="M243.106 71.8472C241.132 72.0874 236.294 72.4237 232.739 71.8472" stroke="#453B3D" stroke-width="1.00563"/>
<path d="M179.423 14.5557C179.176 15.7567 180.83 19.6002 189.42 25.3654C200.157 32.5718 222.372 46.9847 229.407 54.1912C235.035 59.9564 240.638 68.3639 242.736 71.847V31.8512" stroke="#453B3D" stroke-width="1.00563"/>
<path d="M9.84912 329.478L55.0195 351.818" stroke="#453B3D" stroke-width="1.00563"/>
<path d="M243.106 9.51074C227.185 10.4716 193.344 14.3391 185.347 22.1221" stroke="#453B3D" stroke-width="1.00563"/>
<path d="M243.847 0.50293V7.34907" stroke="#453B3D" stroke-width="1.00563"/>
<path d="M128.329 84.0986C131.414 95.3888 136.992 124.887 134.623 152.56C132.253 180.233 130.92 196.039 130.55 200.483V230.39" stroke="#453B3D" stroke-width="1.00563"/>
<path d="M169.426 55.9932C182.632 58.7556 209.635 64.5689 212.005 65.7219C214.375 66.8749 223.359 69.8056 227.555 71.1267" stroke="#453B3D" stroke-width="1.00563"/>
<path d="M174.239 35.8149C183.002 39.5383 202.156 48.0659 208.672 52.3898C215.189 56.7137 224.717 63.5598 228.666 66.4424" stroke="#453B3D" stroke-width="1.00563"/>
<path d="M176.091 25.3647C180.041 29.3283 190.309 38.4805 199.787 43.3809C211.635 49.5064 226.445 57.4335 228.667 60.6764" stroke="#453B3D" stroke-width="1.00563"/>
<path d="M228.666 119.41V64.2802V59.596C230.147 56.4252 231.998 58.2748 232.739 59.596V119.41H228.666Z" fill="white" stroke="#453B3D" stroke-width="1.00563"/>
<path d="M228.666 103.195H232.369" stroke="#453B3D" stroke-width="1.00563"/>
<path d="M232.739 66.082C234.097 68.1239 236.886 72.2796 237.182 72.5678" stroke="#453B3D" stroke-width="1.00563"/>
<path d="M243.106 71.8472C241.132 72.0874 236.294 72.4237 232.739 71.8472" stroke="#453B3D" stroke-width="1.00563"/>
<path d="M179.423 14.5557C179.176 15.7567 180.83 19.6002 189.42 25.3654C200.157 32.5718 222.372 46.9847 229.407 54.1912C235.035 59.9564 240.638 68.3639 242.736 71.847V31.8512" stroke="#453B3D" stroke-width="1.00563"/>
<path d="M9.84912 329.478L55.0195 351.818" stroke="#453B3D" stroke-width="1.00563"/>
<path d="M243.106 9.51074C227.185 10.4716 193.344 14.3391 185.347 22.1221" stroke="#453B3D" stroke-width="1.00563"/>
<path d="M243.847 0.50293V7.34907" stroke="#453B3D" stroke-width="1.00563"/>
<path d="M357.513 84.0986C354.427 95.3888 348.849 124.887 351.218 152.56C353.588 180.233 354.921 196.039 355.291 200.483V230.39" stroke="#453B3D" stroke-width="1.00563"/>
<path d="M316.416 55.9932C303.21 58.7556 276.206 64.5689 273.837 65.7219C271.467 66.8749 262.483 69.8056 258.286 71.1267" stroke="#453B3D" stroke-width="1.00563"/>
<path d="M311.603 35.8149C302.84 39.5383 283.686 48.0659 277.169 52.3898C270.653 56.7137 261.125 63.5598 257.176 66.4424" stroke="#453B3D" stroke-width="1.00563"/>
<path d="M309.75 25.3647C305.801 29.3283 295.532 38.4805 286.054 43.3809C274.206 49.5064 259.396 57.4335 257.175 60.6764" stroke="#453B3D" stroke-width="1.00563"/>
<path d="M257.175 119.41V64.2802V59.596C255.694 56.4252 253.843 58.2748 253.103 59.596V119.41H257.175Z" fill="white" stroke="#453B3D" stroke-width="1.00563"/>
<path d="M257.175 103.195H253.473" stroke="#453B3D" stroke-width="1.00563"/>
<path d="M253.102 66.082C251.744 68.1239 248.955 72.2796 248.659 72.5678" stroke="#453B3D" stroke-width="1.00563"/>
<path d="M242.735 71.8472C244.71 72.0874 249.548 72.4237 253.102 71.8472" stroke="#453B3D" stroke-width="1.00563"/>
<path d="M306.419 14.5557C306.665 15.7567 305.012 19.6002 296.422 25.3654C285.685 32.5718 263.47 46.9847 256.435 54.1912C250.807 59.9564 245.204 68.3639 243.106 71.847V31.8512" stroke="#453B3D" stroke-width="1.00563"/>
<path d="M475.993 329.478L430.822 351.818" stroke="#453B3D" stroke-width="1.00563"/>
<path d="M242.736 9.51074C258.656 10.4716 292.497 14.3391 300.495 22.1221" stroke="#453B3D" stroke-width="1.00563"/>
<path d="M241.995 0.50293V7.34907" stroke="#453B3D" stroke-width="1.00563"/>
<path d="M357.513 84.0986C354.427 95.3888 348.849 124.887 351.218 152.56C353.588 180.233 354.921 196.039 355.291 200.483V230.39" stroke="#453B3D" stroke-width="1.00563"/>
<path d="M316.416 55.9932C303.21 58.7556 276.206 64.5689 273.837 65.7219C271.467 66.8749 262.483 69.8056 258.286 71.1267" stroke="#453B3D" stroke-width="1.00563"/>
<path d="M311.603 35.8149C302.84 39.5383 283.686 48.0659 277.169 52.3898C270.653 56.7137 261.125 63.5598 257.176 66.4424" stroke="#453B3D" stroke-width="1.00563"/>
<path d="M309.75 25.3647C305.801 29.3283 295.532 38.4805 286.054 43.3809C274.206 49.5064 259.396 57.4335 257.175 60.6764" stroke="#453B3D" stroke-width="1.00563"/>
<path d="M257.175 119.41V64.2802V59.596C255.694 56.4252 253.843 58.2748 253.103 59.596V119.41H257.175Z" fill="white" stroke="#453B3D" stroke-width="1.00563"/>
<path d="M257.175 103.195H253.473" stroke="#453B3D" stroke-width="1.00563"/>
<path d="M253.102 66.082C251.744 68.1239 248.955 72.2796 248.659 72.5678" stroke="#453B3D" stroke-width="1.00563"/>
<path d="M242.735 71.8472C244.71 72.0874 249.548 72.4237 253.102 71.8472" stroke="#453B3D" stroke-width="1.00563"/>
<path d="M306.419 14.5557C306.665 15.7567 305.012 19.6002 296.422 25.3654C285.685 32.5718 263.47 46.9847 256.435 54.1912C250.807 59.9564 245.204 68.3639 243.106 71.847V31.8512" stroke="#453B3D" stroke-width="1.00563"/>
<path d="M475.993 329.478L430.822 351.818" stroke="#453B3D" stroke-width="1.00563"/>
<path d="M242.736 9.51074C258.656 10.4716 292.497 14.3391 300.495 22.1221" stroke="#453B3D" stroke-width="1.00563"/>
<path d="M241.995 0.50293V7.34907" stroke="#453B3D" stroke-width="1.00563"/>
</svg>
