<svg width="478" height="398" viewBox="0 0 478 398" fill="none" xmlns="http://www.w3.org/2000/svg">
<path d="M235.129 397.525H242.42H352.172V206.131L439.667 363.011L477.274 341.44L347.951 30.8168L287.702 0.225098C274.883 2.02345 246.873 5.5888 235.707 5.71261C224.748 5.5888 202.666 2.02345 189.846 0.225098L129.598 30.8168L0.274414 341.44L37.8818 363.011L125.377 206.131V397.525H235.129Z" fill="#808080"/>
<path d="M235.129 397.525H352.172M235.129 397.525H242.42M235.129 397.525H125.377M352.172 397.525V206.131L439.667 363.011L477.274 341.44L347.951 30.8168L287.702 0.225098C274.883 2.02345 246.873 5.5888 235.707 5.71261M352.172 397.525H242.42M235.129 5.71592C235.316 5.71592 235.509 5.7148 235.707 5.71261M242.42 397.525H125.377M125.377 397.525V206.131L37.8818 363.011L0.274414 341.44L129.598 30.8168L189.846 0.225098C202.666 2.02345 224.748 5.5888 235.707 5.71261M236.28 5.71592C236.093 5.71592 235.902 5.7148 235.707 5.71261" stroke="#3C3335" stroke-width="0.43526"/>
<path d="M129.598 31.6011C131.773 48.8579 135.738 87.6859 134.203 111.218C132.668 134.75 130.494 146.908 129.598 150.046L126.528 199.463" stroke="#403739" stroke-width="0.43526"/>
<path d="M349.487 34.7393C347.312 51.9961 344.459 87.6864 345.994 111.219C347.529 134.751 349.703 146.909 350.599 150.046L351.405 198.679" stroke="#403739" stroke-width="0.43526"/>
<path d="M130.365 384.975H349.486" stroke="#403739" stroke-width="0.43526"/>
<path d="M130.365 388.112H349.486" stroke="#403739" stroke-width="0.43526"/>
<path d="M13.3213 317.124L48.2424 334.773" stroke="#403739" stroke-width="0.43526"/>
<path d="M426.235 335.949L464.994 317.124" stroke="#403739" stroke-width="0.43526"/>
<path d="M181.787 4.53966C190.23 14.8676 213.792 36.9355 237.431 36.308C266.979 35.5236 287.318 16.3057 295.377 4.14746" stroke="#453B3D" stroke-width="0.43526"/>
<path d="M203.277 13.168C212.359 15.5212 238.966 18.8157 274.271 13.168" stroke="#453B3D" stroke-width="0.43526"/>
<path d="M226.687 25.0139V15.9131H247.409V24.5415C241.153 26.5272 230.987 25.8413 226.687 25.0139Z" fill="#696969"/>
<path d="M189.846 0.225098C196.242 8.72279 215.787 26.3457 236.663 25.7182C262.758 24.9338 277.724 12.3833 288.085 0.225098" stroke="#453B3D" stroke-width="0.43526"/>
</svg>
