<svg width="389" height="722" viewBox="0 0 389 722" fill="none" xmlns="http://www.w3.org/2000/svg">
<path d="M127.89 624.835C150.476 582.211 180.039 386.311 191.997 293.689C196.03 289.019 196.454 303.241 199.851 333.384C203.247 363.527 230.63 509.358 242.518 563.064C252.027 606.028 275.491 671.111 286.034 698.281V713.565L290.067 719.084L320.21 721.419H334.007L343.56 719.084H364.362V698.281C365.778 695.097 370.943 682.828 380.283 659.223C391.958 629.717 386.439 541.199 387.076 514.665C387.712 488.131 376.887 396.641 376.037 372.655C375.358 353.465 365.707 256.258 360.966 210.053C357.06 139.239 339.243 70.873 330.823 45.5418C330.965 44.1266 331.333 39.216 331.672 30.8949C332.012 22.5738 328.842 15.965 327.215 13.7008C304.289 5.42215 260.519 0.577148 197.662 0.577148C136.297 0.577148 62.7224 13.4885 61.2365 13.7008C60.0477 13.8706 55.0805 36.131 52.7455 47.2399L55.2928 48.3013C55.1513 52.9006 52.321 68.8918 42.1319 96.0628C29.3955 130.026 6.0455 411.713 1.16322 514.665C-2.7426 597.027 13.8288 674.507 22.6028 702.951V719.084C47.2265 719.721 98.3843 720.613 106.026 719.084C113.668 717.556 113.314 705.428 112.182 699.555L114.729 695.522C114.376 688.234 113.88 672.384 114.729 667.29C115.578 662.195 123.857 636.864 127.89 624.835Z" fill="#808080" stroke="#453B3D" stroke-width="1.15335"/>
<path d="M51.8965 180.971H45.5283L63.9961 72.7119H72.2747L51.8965 180.971Z" fill="#808080" stroke="#453B3D" stroke-width="1.15335"/>
<path d="M327.851 180.971H334.219L315.751 72.7119H307.472L327.851 180.971Z" fill="#808080" stroke="#453B3D" stroke-width="1.15335"/>
<path d="M178.199 45.3281H186.266V110.496V122.596H178.199V110.496V45.3281Z" fill="#808080"/>
<path d="M178.199 110.496V122.596H186.266V110.496M178.199 110.496V45.3281H186.266V110.496M178.199 110.496H186.266" stroke="#453B3D" stroke-width="1.15335"/>
<path d="M207.28 45.3281H215.347V110.496V122.596H207.28V110.496V45.3281Z" fill="#808080"/>
<path d="M207.28 110.496V122.596H215.347V110.496M207.28 110.496V45.3281H215.347V110.496M207.28 110.496H215.347" stroke="#453B3D" stroke-width="1.15335"/>
<path d="M54.0195 47.2422C104.965 58.9172 231.607 75.2622 330.611 47.2422" stroke="#453B3D" stroke-width="1.15335"/>
<path d="M67.1797 14.125C114.234 27.2859 230.842 45.7112 320.846 14.125" stroke="#453B3D" stroke-width="1.15335"/>
<path d="M135.107 26.6498C166.241 25.0223 235.895 22.7439 265.443 26.6498" stroke="#453B3D" stroke-width="1.15335"/>
<path d="M195.818 62.7344C196.314 131.369 196.54 272.036 193.483 285.621" stroke="#453B3D" stroke-width="1.15335"/>
<path d="M194.543 281.165C212.657 381.146 251.984 590.192 264.381 626.533C276.778 662.874 290.066 688.376 295.16 696.583V719.721" stroke="#453B3D" stroke-width="1.15335"/>
<path d="M193.324 280.84C175.21 380.82 135.883 589.867 123.486 626.208C111.09 662.549 97.8013 688.05 92.7068 696.258V719.396" stroke="#453B3D" stroke-width="1.15335"/>
<path d="M294.543 697.197L361.437 697.197" stroke="#453B3D" stroke-width="1.15335"/>
<path d="M107.7 697.197H26.9659" stroke="#453B3D" stroke-width="1.15335"/>
<path d="M361.392 719.296V698.918C368.185 677.903 381.94 626.321 382.619 588.111C383.468 540.35 365.637 285.835 362.241 259.937C358.845 234.04 342.287 74.6228 330.612 49.3623" stroke="#453B3D" stroke-width="1.15335"/>
<path d="M28.1511 719.296V698.918C21.3583 677.903 7.60303 626.321 6.92376 588.111C6.07466 540.35 23.9056 285.835 27.302 259.937C30.6983 234.04 47.2556 74.6228 58.9307 49.3623" stroke="#453B3D" stroke-width="1.15335"/>
</svg>
