<svg width="389" height="722" viewBox="0 0 389 722" fill="none" xmlns="http://www.w3.org/2000/svg">
<path d="M127.89 624.835C150.476 582.211 180.038 386.311 191.996 293.689C196.029 289.019 196.454 303.241 199.85 333.384C203.247 363.527 230.63 509.358 242.517 563.064C252.027 606.028 275.49 671.111 286.033 698.281V713.565L290.066 719.084L320.209 721.419H334.007L343.559 719.084H364.362V698.281C365.777 695.097 370.942 682.828 380.282 659.223C391.957 629.717 386.438 541.199 387.075 514.665C387.712 488.131 376.886 396.641 376.037 372.655C375.358 353.465 365.706 256.258 360.966 210.053C357.06 139.239 339.243 70.873 330.823 45.5418C330.964 44.1266 331.332 39.216 331.672 30.8949C332.012 22.5738 328.842 15.965 327.214 13.7008C304.289 5.42215 260.519 0.577148 197.661 0.577148C136.296 0.577148 62.7219 13.4885 61.236 13.7008C60.0472 13.8706 55.0801 36.131 52.7451 47.2399L55.2923 48.3013C55.1508 52.9006 52.3205 68.8918 42.1314 96.0628C29.395 130.026 6.04501 411.713 1.16273 514.665C-2.74309 597.027 13.8284 674.507 22.6023 702.951V719.084C47.226 719.721 98.3838 720.613 106.026 719.084C113.667 717.556 113.314 705.428 112.182 699.555L114.729 695.522C114.375 688.234 113.88 672.384 114.729 667.29C115.578 662.195 123.857 636.864 127.89 624.835Z" fill="#2ECC40" stroke="#453B3D" stroke-width="1.15335"/>
<path d="M51.896 180.971H45.5278L63.9956 72.7119H72.2742L51.896 180.971Z" fill="#2ECC40" stroke="#453B3D" stroke-width="1.15335"/>
<path d="M327.85 180.971H334.218L315.751 72.7119H307.472L327.85 180.971Z" fill="#2ECC40" stroke="#453B3D" stroke-width="1.15335"/>
<path d="M178.199 45.3281H186.265V110.496V122.596H178.199V110.496V45.3281Z" fill="#2ECC40"/>
<path d="M178.199 110.496V122.596H186.265V110.496M178.199 110.496V45.3281H186.265V110.496M178.199 110.496H186.265" stroke="#453B3D" stroke-width="1.15335"/>
<path d="M207.28 45.3281H215.346V110.496V122.596H207.28V110.496V45.3281Z" fill="#2ECC40"/>
<path d="M207.28 110.496V122.596H215.346V110.496M207.28 110.496V45.3281H215.346V110.496M207.28 110.496H215.346" stroke="#453B3D" stroke-width="1.15335"/>
<path d="M54.019 47.2422C104.965 58.9172 231.607 75.2622 330.611 47.2422" stroke="#453B3D" stroke-width="1.15335"/>
<path d="M67.1787 14.125C114.233 27.2859 230.841 45.7112 320.845 14.125" stroke="#453B3D" stroke-width="1.15335"/>
<path d="M135.107 26.6498C166.24 25.0223 235.894 22.7439 265.443 26.6498" stroke="#453B3D" stroke-width="1.15335"/>
<path d="M195.817 62.7344C196.313 131.369 196.539 272.036 193.482 285.621" stroke="#453B3D" stroke-width="1.15335"/>
<path d="M194.543 281.165C212.657 381.146 251.984 590.192 264.381 626.533C276.778 662.874 290.066 688.376 295.16 696.583V719.721" stroke="#453B3D" stroke-width="1.15335"/>
<path d="M193.324 280.84C175.21 380.82 135.883 589.867 123.486 626.208C111.089 662.549 97.8009 688.05 92.7063 696.258V719.396" stroke="#453B3D" stroke-width="1.15335"/>
<path d="M294.542 697.197L361.437 697.197" stroke="#453B3D" stroke-width="1.15335"/>
<path d="M107.699 697.197H26.9649" stroke="#453B3D" stroke-width="1.15335"/>
<path d="M361.391 719.296V698.918C368.184 677.903 381.939 626.321 382.619 588.111C383.468 540.35 365.637 285.835 362.241 259.937C358.844 234.04 342.287 74.6228 330.612 49.3623" stroke="#453B3D" stroke-width="1.15335"/>
<path d="M28.1511 719.296V698.918C21.3583 677.903 7.60303 626.321 6.92376 588.111C6.07466 540.35 23.9056 285.835 27.302 259.937C30.6983 234.04 47.2556 74.6228 58.9307 49.3623" stroke="#453B3D" stroke-width="1.15335"/>
</svg>
