<svg width="458" height="412" viewBox="0 0 458 412" fill="none" xmlns="http://www.w3.org/2000/svg">
<path d="M49.573 48.145L54.2549 0.657227H402.721L407.403 48.145L456.898 390.592L246.881 410.657L228.823 274.214L209.426 410.657L0.747559 390.592L49.573 48.145Z" fill="white" stroke="#453B3D" stroke-width="1.31443"/>
<rect width="346.46" height="47.4878" transform="translate(54.2549 1.3252)" fill="white"/>
<path d="M59.6056 1.3252L54.2549 48.813" stroke="#453B3D" stroke-width="1.31443"/>
<path d="M66.2941 1.3252L60.9434 48.813" stroke="#453B3D" stroke-width="1.31443"/>
<path d="M72.9826 1.3252L67.6318 48.813" stroke="#453B3D" stroke-width="1.31443"/>
<path d="M79.671 1.3252L74.3203 48.813" stroke="#453B3D" stroke-width="1.31443"/>
<path d="M86.3595 1.3252L81.0088 48.813" stroke="#453B3D" stroke-width="1.31443"/>
<path d="M93.048 1.3252L87.6973 48.813" stroke="#453B3D" stroke-width="1.31443"/>
<path d="M99.736 1.3252L94.3853 48.813" stroke="#453B3D" stroke-width="1.31443"/>
<path d="M106.424 1.3252L101.074 48.813" stroke="#453B3D" stroke-width="1.31443"/>
<path d="M113.113 1.3252L107.762 48.813" stroke="#453B3D" stroke-width="1.31443"/>
<path d="M119.801 1.3252L114.45 48.813" stroke="#453B3D" stroke-width="1.31443"/>
<path d="M126.489 1.3252L121.139 48.813" stroke="#453B3D" stroke-width="1.31443"/>
<path d="M133.178 1.3252L127.827 48.813" stroke="#453B3D" stroke-width="1.31443"/>
<path d="M139.866 1.3252L134.516 48.813" stroke="#453B3D" stroke-width="1.31443"/>
<path d="M146.555 1.3252L141.204 48.813" stroke="#453B3D" stroke-width="1.31443"/>
<path d="M153.243 1.3252L147.893 48.813" stroke="#453B3D" stroke-width="1.31443"/>
<path d="M159.932 1.3252L154.581 48.813" stroke="#453B3D" stroke-width="1.31443"/>
<path d="M166.62 1.3252L161.27 48.813" stroke="#453B3D" stroke-width="1.31443"/>
<path d="M173.309 1.3252L167.958 48.813" stroke="#453B3D" stroke-width="1.31443"/>
<path d="M179.997 1.3252L174.646 48.813" stroke="#453B3D" stroke-width="1.31443"/>
<path d="M186.686 1.3252L181.335 48.813" stroke="#453B3D" stroke-width="1.31443"/>
<path d="M193.374 1.3252L188.023 48.813" stroke="#453B3D" stroke-width="1.31443"/>
<path d="M200.062 1.3252L194.711 48.813" stroke="#453B3D" stroke-width="1.31443"/>
<path d="M206.751 1.3252L201.4 48.813" stroke="#453B3D" stroke-width="1.31443"/>
<path d="M213.439 1.3252L208.088 48.813" stroke="#453B3D" stroke-width="1.31443"/>
<path d="M220.128 1.3252L214.777 48.813" stroke="#453B3D" stroke-width="1.31443"/>
<path d="M226.816 1.3252L221.465 48.813" stroke="#453B3D" stroke-width="1.31443"/>
<path d="M233.505 1.3252L228.154 48.813" stroke="#453B3D" stroke-width="1.31443"/>
<path d="M240.193 1.3252L234.842 48.813" stroke="#453B3D" stroke-width="1.31443"/>
<path d="M246.881 1.3252L241.531 48.813" stroke="#453B3D" stroke-width="1.31443"/>
<path d="M253.569 1.3252L248.219 48.813" stroke="#453B3D" stroke-width="1.31443"/>
<path d="M260.258 1.3252L254.907 48.813" stroke="#453B3D" stroke-width="1.31443"/>
<path d="M266.946 1.3252L261.596 48.813" stroke="#453B3D" stroke-width="1.31443"/>
<path d="M273.635 1.3252L268.284 48.813" stroke="#453B3D" stroke-width="1.31443"/>
<path d="M280.323 1.3252L274.973 48.813" stroke="#453B3D" stroke-width="1.31443"/>
<path d="M287.012 1.3252L281.661 48.813" stroke="#453B3D" stroke-width="1.31443"/>
<path d="M293.7 1.3252L288.35 48.813" stroke="#453B3D" stroke-width="1.31443"/>
<path d="M300.389 1.3252L295.038 48.813" stroke="#453B3D" stroke-width="1.31443"/>
<path d="M307.077 1.3252L301.727 48.813" stroke="#453B3D" stroke-width="1.31443"/>
<path d="M313.765 1.3252L308.415 48.813" stroke="#453B3D" stroke-width="1.31443"/>
<path d="M320.454 1.3252L315.103 48.813" stroke="#453B3D" stroke-width="1.31443"/>
<path d="M327.142 1.3252L321.792 48.813" stroke="#453B3D" stroke-width="1.31443"/>
<path d="M333.831 1.3252L328.48 48.813" stroke="#453B3D" stroke-width="1.31443"/>
<path d="M340.519 1.3252L335.168 48.813" stroke="#453B3D" stroke-width="1.31443"/>
<path d="M347.207 1.3252L341.856 48.813" stroke="#453B3D" stroke-width="1.31443"/>
<path d="M353.896 1.3252L348.545 48.813" stroke="#453B3D" stroke-width="1.31443"/>
<path d="M360.584 1.3252L355.233 48.813" stroke="#453B3D" stroke-width="1.31443"/>
<path d="M367.273 1.3252L361.922 48.813" stroke="#453B3D" stroke-width="1.31443"/>
<path d="M373.961 1.3252L368.61 48.813" stroke="#453B3D" stroke-width="1.31443"/>
<path d="M380.65 1.3252L375.299 48.813" stroke="#453B3D" stroke-width="1.31443"/>
<path d="M387.338 1.3252L381.987 48.813" stroke="#453B3D" stroke-width="1.31443"/>
<path d="M394.027 1.3252L388.676 48.813" stroke="#453B3D" stroke-width="1.31443"/>
<path d="M400.715 1.3252L395.364 48.813" stroke="#453B3D" stroke-width="1.31443"/>
<path d="M228.822 276.22V48.8135" stroke="#453B3D" stroke-width="1.31443"/>
<path d="M206.082 22.7295H199.394V48.8143H206.082V22.7295Z" fill="white"/>
<path d="M264.272 22.7295H256.914V48.8143H264.272V22.7295Z" fill="white"/>
<path d="M50.911 48.8143H199.394M406.066 48.8143H264.272M206.082 48.8143V119.043H199.394V48.8143M206.082 48.8143H199.394M206.082 48.8143V22.7295H199.394V48.8143M206.082 48.8143H256.914M264.272 48.8143V119.043H256.914V48.8143M264.272 48.8143H256.914M264.272 48.8143V22.7295H256.914V48.8143M46.8979 202.648H56.9306L73.6516 70.8861H63.619L46.8979 202.648ZM383.994 70.8861H392.689L409.41 202.648H398.04L383.994 70.8861Z" stroke="#453B3D" stroke-width="1.31443"/>
</svg>
