<svg width="477" height="398" viewBox="0 0 477 398" fill="none" xmlns="http://www.w3.org/2000/svg">
<path d="M379.88 36.3975L476.46 110.229L414.775 203.751L361.819 179.861L361.255 179.606V396.899H114.546L115.745 180.229L115.749 179.604L115.18 179.862L62.623 203.751L0.541992 109.832L98.7178 36.3994L193.889 0.411133C199.901 1.27904 209.157 2.57246 217.522 3.65137C225.918 4.73411 233.461 5.60736 235.896 5.60742C238.327 5.60742 247.268 4.73548 257.416 3.65234C267.535 2.57228 278.895 1.27603 286.308 0.408203L379.88 36.3975Z" fill="#FF4136" stroke="#3D3435" stroke-width="0.801008"/>
<path d="M114.144 380.479H362.055" stroke="#453B3D" stroke-width="0.801008"/>
<path d="M114.144 384.083H362.055" stroke="#453B3D" stroke-width="0.801008"/>
<path d="M183.03 4.40576C190.773 14.1514 212.748 33.4823 238.7 32.8415C264.653 32.2007 286.36 13.6173 293.97 4.40576" stroke="#453B3D" stroke-width="0.801008"/>
<path d="M192.242 0.800781C197.715 8.54385 214.59 23.9499 238.3 23.6295C262.009 23.3091 279.685 8.27685 285.559 0.800781" stroke="#453B3D" stroke-width="0.801008"/>
<path d="M204.657 12.8159C217.607 14.6849 249.514 17.3016 273.544 12.8159" stroke="#453B3D" stroke-width="0.801008"/>
<path d="M114.945 57.272V179.826" stroke="#453B3D" stroke-width="0.801008"/>
<path d="M84.9067 48.0605C94.6523 62.0782 114.304 96.8419 114.945 123.756" stroke="#453B3D" stroke-width="0.801008"/>
<path d="M360.454 57.272V179.826" stroke="#453B3D" stroke-width="0.801008"/>
<path d="M390.491 48.0605C380.746 62.0782 361.094 96.8419 360.453 123.756" stroke="#453B3D" stroke-width="0.801008"/>
<path d="M8.01025 104.531L69.6878 199.851" stroke="#453B3D" stroke-width="0.801008"/>
<path d="M11.6147 102.128L73.6928 198.65" stroke="#453B3D" stroke-width="0.801008"/>
<path d="M470.191 104.531L408.514 199.851" stroke="#453B3D" stroke-width="0.801008"/>
<path d="M466.587 102.128L404.509 198.65" stroke="#453B3D" stroke-width="0.801008"/>
</svg>
